<svg width="9" height="17" viewBox="0 0 9 17" fill="none" xmlns="http://www.w3.org/2000/svg">
<path d="M7.09374 16.6499L7.09374 16.6499L7.08846 16.6499C6.9593 16.6504 6.83168 16.6219 6.71498 16.5665C6.59837 16.5112 6.49564 16.4305 6.41431 16.3304C6.41425 16.3303 6.41418 16.3302 6.41412 16.3301L0.548894 9.04614L0.548908 9.04613L0.546635 9.04336C0.419494 8.88873 0.35 8.69479 0.35 8.49465C0.35 8.29486 0.419248 8.10125 0.54596 7.94676L6.61765 0.662723L6.61794 0.662379C6.76474 0.485806 6.97572 0.374744 7.20446 0.35366C7.4332 0.332576 7.66094 0.403202 7.83757 0.549974C8.0142 0.696743 8.12526 0.907627 8.14634 1.13622C8.16741 1.36473 8.09686 1.59226 7.95018 1.7688C7.95013 1.76887 7.95007 1.76893 7.95001 1.769L2.52154 8.27652L2.33768 8.49693L2.51783 8.72039L7.76449 15.2283L7.76445 15.2284L7.76809 15.2327C7.87379 15.3596 7.94093 15.514 7.96157 15.6778C7.98221 15.8416 7.95549 16.0079 7.88456 16.157C7.81364 16.306 7.70147 16.4317 7.56132 16.5191C7.42117 16.6065 7.25891 16.6519 7.09374 16.6499Z" fill="#525252" stroke="white" stroke-width="0.7"/>
</svg>
