<svg id="Layer_1" data-name="Layer 1" xmlns="http://www.w3.org/2000/svg" viewBox="0 0 100 93.37"><defs><style>.cls-1{fill:#fff;fill-rule:evenodd;}</style></defs><title>auto</title><path class="cls-1" d="M9.36,15.9a2.88,2.88,0,1,0-2.88,2.88A2.87,2.87,0,0,0,9.36,15.9ZM3.72,83.31H8.37V94.25a1.93,1.93,0,0,0,1.92,1.92h11.9a1.93,1.93,0,0,0,1.92-1.92V83.31H34.69V78.84H65.3v4.47H75.89V94.25a1.93,1.93,0,0,0,1.92,1.92h11.9a1.93,1.93,0,0,0,1.92-1.92V83.31h4.64A3.74,3.74,0,0,0,100,79.58V61.72a12.13,12.13,0,0,0-12-12.1l-3.59-11.5a18.37,18.37,0,0,0-3.61-6.84,10.55,10.55,0,0,0-7.28-3.59c-13.21-1-18.28-1.28-23.37-1.29s-10.2.26-23.73,1.29a10.55,10.55,0,0,0-7.28,3.59,18.23,18.23,0,0,0-3.61,6.84L12,49.62A12.14,12.14,0,0,0,0,61.72V79.58a3.73,3.73,0,0,0,3.72,3.73Zm32.72,3.34h0V80.42H63.56v6.23ZM50,49.62H17.33l3.11-10A13.06,13.06,0,0,1,23,34.71a5.52,5.52,0,0,1,3.84-1.92c7.73-.59,15.43-1.28,23.18-1.28s15.45.69,23.17,1.28A5.56,5.56,0,0,1,77,34.71a13.36,13.36,0,0,1,2.54,4.93l3.12,10ZM86.26,58h0a5.24,5.24,0,1,1,0,10.48h-7a5.24,5.24,0,1,1,0-10.48ZM13.73,58h7a5.24,5.24,0,1,1,0,10.48h-7a5.24,5.24,0,0,1,0-10.48ZM0,15.9H0c0-3.58,3.66-6.48,6.48-6.48a5.45,5.45,0,0,1,5.07,2.45H67.32c5.35-.18,8-.27,10.82-3.47,2.62-3.25,6.3-5.61,10.74-5.61A13.13,13.13,0,0,1,100,9H89l-4.71,7L89,22.84h11A13.1,13.1,0,0,1,88.88,29c-4.44,0-8.12-2.36-10.74-5.6-2.83-3.21-5.46-3.29-10.82-3.47H11.55a5.47,5.47,0,0,1-5.07,2.45C3.66,22.38,0,19.48,0,15.9Z" transform="translate(0 -2.79)"/></svg>