<svg width="16" height="14" viewBox="0 0 16 14" fill="none" xmlns="http://www.w3.org/2000/svg">
<path d="M7.99996 3.45833V0.625H0.916626V13.375H15.0833V3.45833H7.99996ZM3.74996 11.9583H2.33329V10.5417H3.74996V11.9583ZM3.74996 9.125H2.33329V7.70833H3.74996V9.125ZM3.74996 6.29167H2.33329V4.875H3.74996V6.29167ZM3.74996 3.45833H2.33329V2.04167H3.74996V3.45833ZM6.58329 11.9583H5.16663V10.5417H6.58329V11.9583ZM6.58329 9.125H5.16663V7.70833H6.58329V9.125ZM6.58329 6.29167H5.16663V4.875H6.58329V6.29167ZM6.58329 3.45833H5.16663V2.04167H6.58329V3.45833ZM13.6666 11.9583H7.99996V10.5417H9.41663V9.125H7.99996V7.70833H9.41663V6.29167H7.99996V4.875H13.6666V11.9583ZM12.25 6.29167H10.8333V7.70833H12.25V6.29167ZM12.25 9.125H10.8333V10.5417H12.25V9.125Z" fill="#52525B"/>
</svg>
