<svg width="15" height="21" viewBox="0 0 15 21" fill="none" xmlns="http://www.w3.org/2000/svg">
<path d="M7.49992 0.0834961C3.46867 0.0834961 0.208252 3.34391 0.208252 7.37516C0.208252 9.18766 0.729085 10.8856 1.677 12.4168C2.66659 14.021 3.96867 15.396 4.96867 17.0002C5.45825 17.7814 5.81242 18.5106 6.18742 19.3543C6.45825 19.9272 6.677 20.9168 7.49992 20.9168C8.32284 20.9168 8.54159 19.9272 8.802 19.3543C9.18742 18.5106 9.53117 17.7814 10.0208 17.0002C11.0208 15.4064 12.3228 14.0314 13.3124 12.4168C14.2708 10.8856 14.7916 9.18766 14.7916 7.37516C14.7916 3.34391 11.5312 0.0834961 7.49992 0.0834961ZM7.49992 10.2397C6.06242 10.2397 4.89575 9.07308 4.89575 7.63558C4.89575 6.19808 6.06242 5.03141 7.49992 5.03141C8.93742 5.03141 10.1041 6.19808 10.1041 7.63558C10.1041 9.07308 8.93742 10.2397 7.49992 10.2397Z" fill="#F4F4F5"/>
</svg>
