<svg width="48" height="40" viewBox="0 0 48 40" fill="none" xmlns="http://www.w3.org/2000/svg">
<path d="M37.595 23.064C40.0341 21.6553 42.4671 20.248 44.9076 18.8393L39.1061 8.79189C38.6227 9.07117 37.4127 9.85098 36.9879 9.90834V9.9097L32.9509 10.4512L35.4652 12.637C36.0968 13.1853 36.0401 14.2219 35.2228 14.6705C35.2125 14.676 32.3555 16.2021 29.5278 14.9969L37.595 23.064ZM5.34419 14.34L14.3045 5.62553L11.4925 3.76751L3.13177 12.1283L5.34419 14.34ZM16.5026 6.93523L7.09227 16.0881L9.52866 18.5252L9.52661 18.5272C9.97456 18.9752 12.7858 25.1972 12.8835 25.3365L24.4106 36.8691C25.4936 37.9439 27.0846 36.2976 26.033 35.246L19.6737 28.8866C18.5197 27.7333 20.2726 25.9805 21.4266 27.1338L27.8494 33.5614C28.3697 34.0817 28.8252 34.7113 29.4814 34.7113C30.5173 34.7113 30.996 33.4631 30.2913 32.7584L23.9326 26.399C22.7786 25.2457 24.5315 23.4929 25.6848 24.6469L33.4358 32.3972L33.433 32.3992C34.5071 33.4665 36.1303 31.8509 35.0562 30.7768L28.6968 24.4174C27.5428 23.2634 29.2957 21.5112 30.4497 22.6646L36.809 29.0239C37.8729 30.0885 39.4933 28.4681 38.4287 27.4035L23.8582 12.833L23.8602 12.8309C22.9889 11.9582 23.8042 10.4737 25.0108 10.751L28.7139 11.6032C29.6869 11.7937 29.9328 13.072 32.0981 12.9852L27.2526 8.7714L16.5026 6.93523ZM30.4654 8.29L36.4218 7.49175L38.9402 6.03456C39.5315 5.69245 40.2881 5.89389 40.6302 6.48524L47.6663 18.672C48.0084 19.2626 47.8069 20.0192 47.2163 20.3613C44.6098 21.8663 42.0062 23.3665 39.4018 24.8708C40.396 25.8651 41.2407 26.5848 41.2407 28.2134C41.2407 30.124 39.7678 31.7013 37.8592 31.8277C37.6974 34.2743 35.1565 35.8988 32.841 34.9257C32.1786 36.5755 30.4169 37.4864 28.6907 37.1033C27.9231 39.649 24.6455 40.5995 22.6625 38.6165L22.6598 38.6192L10.9804 26.9399C10.8547 26.8135 10.7612 26.6674 10.7011 26.511C10.4614 25.9948 8.94551 22.7431 7.64196 20.1435L0.502812 13.0044C0.0186751 12.5202 0.0186751 11.7356 0.502812 11.2515L10.4532 1.30108C10.8971 0.857229 11.5943 0.820355 12.0805 1.19114L17.1369 4.5323L28.0071 6.38896C28.2646 6.43266 28.4899 6.55284 28.6634 6.72287L30.4654 8.29Z" fill="#20C6B6"/>
</svg>
