<svg width="47" height="48" viewBox="0 0 47 48" fill="none" xmlns="http://www.w3.org/2000/svg">
<path d="M0 23.61C0 17.3482 2.43573 11.3429 6.77122 6.91521C11.1067 2.48747 16.9868 0 23.1181 0C29.2475 0.00648154 35.1242 2.49604 39.4583 6.92237C43.7925 11.3487 46.2299 17.3502 46.2362 23.61C46.2362 29.8718 43.8005 35.8771 39.465 40.3048C35.1295 44.7325 29.2494 47.22 23.1181 47.22C16.9868 47.22 11.1067 44.7325 6.77122 40.3048C2.43573 35.8771 0 29.8718 0 23.61ZM3.27942 23.5838C3.27214 28.9658 5.35803 34.1306 9.07818 37.9427C12.7983 41.7548 17.8482 43.9022 23.1181 43.9129C28.395 43.9166 33.4577 41.7799 37.1924 37.9726C40.9271 34.1653 43.0287 28.9992 43.0346 23.61C43.035 18.2279 40.9424 13.0659 37.2174 9.25877C33.4925 5.4516 28.4399 3.31086 23.17 3.30715H23.1583C17.8889 3.30483 12.834 5.4393 9.10494 9.24146C5.37589 13.0436 3.27741 18.2023 3.27105 23.5838H3.27942ZM22.0445 36.3979V34.4321H21.9366C19.5565 34.394 17.2765 33.4483 15.5442 31.7808C15.3303 31.5288 15.2127 31.2066 15.2122 30.8731C15.2204 30.4496 15.383 30.0443 15.6679 29.7365C15.9529 29.4287 16.3397 29.2403 16.7533 29.2082C17.101 29.1995 17.442 29.3043 17.7274 29.5073C18.9305 30.4725 20.3624 31.0963 21.8773 31.3156H22.0019V25.0021H21.9166C18.6321 24.1487 15.4087 22.9734 15.4087 18.9475C15.4873 17.2538 16.2218 15.6614 17.4498 14.5204C18.6778 13.3794 20.2992 12.7833 21.9575 12.8631H22.0721V10.8536C22.0824 10.547 22.2112 10.2569 22.43 10.0466C22.6487 9.8363 22.9399 9.7228 23.2402 9.73082C23.5347 9.73282 23.817 9.85059 24.0287 10.0597C24.2404 10.2687 24.3655 10.5531 24.3774 10.8536V12.8911H24.4786C26.4456 12.9978 28.3158 13.7954 29.7731 15.1489C29.9809 15.3915 30.0983 15.701 30.1051 16.0233C30.0998 16.2495 30.0512 16.4725 29.9612 16.6793C29.8713 16.8861 29.7425 17.0727 29.5816 17.2283C29.4204 17.384 29.2297 17.5056 29.0222 17.5861C28.8147 17.6665 28.5944 17.7042 28.3725 17.697C28.1841 17.7329 27.9907 17.7329 27.8023 17.697C26.7801 17.0581 25.6696 16.5788 24.5087 16.2752L24.3774 16.2349V21.8716H24.4543C27.6703 22.7793 31.0934 24.0595 31.0934 28.1886C30.9307 31.7808 28.5243 34.0526 24.476 34.4391H24.3531V36.3979C24.3077 36.6785 24.1666 36.9336 23.9543 37.1178C23.742 37.3019 23.4727 37.4032 23.1942 37.4035C22.9163 37.4023 22.6474 37.3007 22.4358 37.1166C22.2242 36.9326 22.0831 36.6779 22.0378 36.3979H22.0445ZM24.3464 31.3139H24.471C26.3547 31.0148 27.4854 29.941 27.4854 28.4404C27.4854 27.2564 26.3655 26.2473 24.4869 25.6772L24.3464 25.637V31.3139ZM18.9758 18.6676C18.9758 20.1507 20.1745 20.6089 21.8664 21.0986L22.0069 21.1546V15.9761H21.8823C20.0825 16.1667 18.9691 17.1863 18.9691 18.6694L18.9758 18.6676Z" fill="#20C6B6"/>
</svg>
