<svg width="64" height="61" viewBox="0 0 64 61" fill="none" xmlns="http://www.w3.org/2000/svg">
<rect x="0.796112" y="0.687744" width="63" height="60" rx="4" fill="#E7FFFD"/>
<path d="M23.6365 14.9746C19.3251 14.9746 13.7961 18.7662 13.7961 26.205C13.7961 30.3881 16.4619 34.2364 19.9464 37.6322C23.4309 41.028 27.8235 44.0026 31.6934 46.2918C31.8758 46.4 32.084 46.4571 32.2961 46.4571C32.5082 46.4571 32.7164 46.4 32.8988 46.2918C36.7687 44.0026 41.1613 41.028 44.6458 37.6322C48.1303 34.2364 50.7961 30.3881 50.7961 26.205C50.7961 18.7662 45.2671 14.9746 40.9557 14.9746C36.8707 14.9746 34.0976 16.7591 32.2961 18.9477C30.4946 16.7591 27.7215 14.9746 23.6365 14.9746ZM23.6365 17.3363C27.757 17.3363 29.9113 19.2204 31.2875 21.4816C31.3929 21.6546 31.541 21.7977 31.7176 21.8969C31.8943 21.9962 32.0935 22.0483 32.2961 22.0483C32.4987 22.0483 32.6979 21.9962 32.8746 21.8969C33.0512 21.7977 33.1994 21.6546 33.3048 21.4816C34.6809 19.2204 36.8352 17.3363 40.9557 17.3363C43.8789 17.3363 48.4344 19.9234 48.4344 26.205C48.4344 29.3482 46.2624 32.7653 42.9976 35.947C39.9013 38.9645 35.917 41.6882 32.2961 43.8686C28.6752 41.6882 24.6909 38.9645 21.5946 35.947C18.3298 32.7653 16.1578 29.3482 16.1578 26.205C16.1578 19.9234 20.7133 17.3363 23.6365 17.3363ZM19.3068 23.216C19.0344 23.2163 18.7704 23.3107 18.5597 23.4833C18.349 23.656 18.2044 23.8961 18.1505 24.1631C17.4413 27.4542 19.3154 30.5434 21.1026 32.3307C21.2088 32.4523 21.3388 32.5508 21.4846 32.6202C21.6303 32.6896 21.7888 32.7284 21.9501 32.7341C22.1115 32.7399 22.2723 32.7125 22.4226 32.6536C22.5729 32.5948 22.7096 32.5058 22.8242 32.392C22.9388 32.2783 23.0288 32.1423 23.0887 31.9924C23.1487 31.8425 23.1773 31.6819 23.1727 31.5205C23.1681 31.3591 23.1305 31.2004 23.0622 31.0542C22.9939 30.9079 22.8963 30.7772 22.7755 30.6701C21.4137 29.3083 20.02 26.7232 20.463 24.6674C20.5039 24.4935 20.5049 24.3126 20.4657 24.1383C20.4266 23.964 20.3485 23.8008 20.2371 23.6611C20.1258 23.5213 19.9843 23.4087 19.8231 23.3316C19.6619 23.2545 19.4854 23.215 19.3068 23.216Z" fill="#20C6B6"/>
</svg>
