<svg width="37" height="37" viewBox="0 0 37 37" fill="none" xmlns="http://www.w3.org/2000/svg">
<path d="M0 18.1994C0 13.3726 1.91749 8.74352 5.33053 5.33047C8.74358 1.91743 13.3726 0 18.1994 0C23.0246 0.00499619 27.651 1.92403 31.063 5.33599C34.4749 8.74795 36.3938 13.3741 36.3988 18.1994C36.3988 23.0261 34.4813 27.6552 31.0682 31.0683C27.6552 34.4813 23.0261 36.3988 18.1994 36.3988C13.3726 36.3988 8.74358 34.4813 5.33053 31.0683C1.91749 27.6552 0 23.0261 0 18.1994ZM2.58167 18.1792C2.57594 22.3278 4.21802 26.309 7.14665 29.2475C10.0753 32.186 14.0507 33.8413 18.1994 33.8495C22.3535 33.8524 26.339 32.2053 29.2791 29.2706C32.2192 26.3358 33.8737 22.3535 33.8783 18.1994C33.8787 14.0507 32.2313 10.0717 29.2988 7.13697C26.3664 4.20227 22.3889 2.55212 18.2402 2.54926H18.231C14.0828 2.54747 10.1033 4.1928 7.16772 7.12362C4.23209 10.0544 2.58009 14.0309 2.57509 18.1792H2.58167ZM17.3542 28.0567V26.5414H17.2693C15.3955 26.512 13.6006 25.783 12.2369 24.4977C12.0686 24.3035 11.9759 24.0551 11.9756 23.798C11.982 23.4716 12.11 23.1592 12.3343 22.9219C12.5587 22.6846 12.8631 22.5394 13.1888 22.5146C13.4625 22.508 13.7309 22.5887 13.9556 22.7452C14.9028 23.4892 16.03 23.9701 17.2225 24.1391H17.3206V19.2725H17.2535C14.6678 18.6146 12.1303 17.7087 12.1303 14.6053C12.1921 13.2998 12.7703 12.0723 13.7371 11.1928C14.7038 10.3133 15.9802 9.85377 17.2857 9.91529H17.3759V8.36632C17.384 8.12995 17.4854 7.90636 17.6576 7.74425C17.8298 7.58215 18.0591 7.49465 18.2955 7.50084C18.5273 7.50238 18.7495 7.59316 18.9162 7.75432C19.0829 7.91549 19.1814 8.13465 19.1907 8.36632V9.93686H19.2704C20.8189 10.0191 22.2912 10.6339 23.4384 11.6773C23.602 11.8643 23.6944 12.1029 23.6997 12.3513C23.6956 12.5257 23.6573 12.6975 23.5865 12.8569C23.5157 13.0164 23.4143 13.1602 23.2877 13.2802C23.1607 13.4002 23.0106 13.4939 22.8473 13.5559C22.6839 13.6179 22.5105 13.647 22.3358 13.6414C22.1875 13.6691 22.0353 13.6691 21.8869 13.6414C21.0822 13.1489 20.208 12.7795 19.2941 12.5454L19.1907 12.5144V16.8594H19.2513C21.783 17.559 24.4778 18.5458 24.4778 21.7287C24.3497 24.4977 22.4553 26.2489 19.2684 26.5468H19.1716V28.0567C19.1359 28.273 19.0248 28.4697 18.8576 28.6116C18.6905 28.7536 18.4785 28.8316 18.2593 28.8319C18.0405 28.831 17.8288 28.7526 17.6622 28.6107C17.4957 28.4689 17.3846 28.2726 17.3489 28.0567H17.3542ZM19.1663 24.1378H19.2644C20.7473 23.9072 21.6374 23.0795 21.6374 21.9228C21.6374 21.0102 20.7558 20.2323 19.2769 19.7928L19.1663 19.7618V24.1378ZM14.9384 14.3896C14.9384 15.5328 15.882 15.886 17.214 16.2635L17.3246 16.3066V12.3149H17.2265C15.8096 12.4619 14.9331 13.2478 14.9331 14.391L14.9384 14.3896Z" fill="#20C6B6"/>
</svg>
