<svg width="13" height="13" viewBox="0 0 13 13" fill="none" xmlns="http://www.w3.org/2000/svg">
<path d="M7.04163 4.87496H5.95829V3.79163H7.04163V4.87496ZM7.04163 9.20829H5.95829V5.95829H7.04163V9.20829ZM6.50538 11.9166C9.49538 11.9166 11.9166 9.48996 11.9166 6.49996C11.9166 3.50996 9.49538 1.08329 6.50538 1.08329C3.50996 1.08329 1.08329 3.50996 1.08329 6.49996C1.08329 9.48996 3.50996 11.9166 6.50538 11.9166ZM6.49996 2.16663C8.89413 2.16663 10.8333 4.10579 10.8333 6.49996C10.8333 8.89413 8.89413 10.8333 6.49996 10.8333C4.10579 10.8333 2.16663 8.89413 2.16663 6.49996C2.16663 4.10579 4.10579 2.16663 6.49996 2.16663Z" fill="#20C6B6"/>
</svg>
