<svg width="26" height="25" viewBox="0 0 26 25" fill="none" xmlns="http://www.w3.org/2000/svg">
<path d="M23.5273 0H3.07278C1.81709 0 0.800049 1.01705 0.800049 2.27273V22.7273C0.800049 23.983 1.81709 25 3.07278 25H14.4364V14.7727H11.0273V11.3636H14.4364V9.53295C14.4364 6.06705 16.125 4.54545 19.0057 4.54545C20.3853 4.54545 21.1148 4.64773 21.4603 4.69432V7.95455H19.4955C18.2728 7.95455 17.8455 8.6 17.8455 9.90682V11.3636H21.4296L20.9432 14.7727H17.8455V25H23.5273C24.783 25 25.8 23.983 25.8 22.7273V2.27273C25.8 1.01705 24.7819 0 23.5273 0Z" fill="white"/>
</svg>
