<svg width="61" height="76" viewBox="0 0 61 76" fill="none" xmlns="http://www.w3.org/2000/svg">
<path d="M11.5521 22.3433C5.18234 22.3433 0 17.3317 0 11.1714C0 5.01155 5.18234 0 11.5521 0C17.9219 0 23.1043 5.01155 23.1043 11.1714C23.1043 17.3317 17.9219 22.3433 11.5521 22.3433ZM34.399 11.1714C34.399 5.01155 39.5813 0 45.9507 0C52.3209 0 57.5033 5.01155 57.5033 11.1714C57.5033 17.3313 52.3209 22.3428 45.9507 22.3428C39.5813 22.3428 34.399 17.3313 34.399 11.1714ZM37.1162 11.1714C37.1162 15.8823 41.0797 19.7152 45.9507 19.7152C50.8226 19.7152 54.786 15.8823 54.786 11.1714C54.786 6.46053 50.8226 2.62767 45.9507 2.62767C41.0797 2.62767 37.1162 6.46053 37.1162 11.1714ZM57.9805 68.4137L40.6107 75.6057C38.5764 76.448 36.255 75.9121 34.8333 74.2723L31.994 70.9975C31.7722 70.7422 31.4885 70.5359 31.173 70.4014L14.2304 63.171C12.9008 62.6953 11.7591 61.6411 11.1726 60.3068C10.5782 58.9544 10.5871 57.462 11.1987 56.1052C12.2965 53.6669 15.1945 52.4214 17.9423 53.2079L23.1492 54.6975L12.9635 31.6922C12.3727 30.3579 12.3918 28.8342 13.0155 27.5134C13.6394 26.193 14.8185 25.1791 16.259 24.7361C18.8455 23.9369 21.7398 25.2735 22.8494 27.7795L27.4516 38.1742C28.1116 37.3417 29.0257 36.7115 30.0797 36.3864C31.8213 35.8476 33.7031 36.2776 35.0849 37.3817C35.7447 36.2511 36.8287 35.3919 38.1246 34.9916C39.8664 34.4533 41.7484 34.8836 43.1302 35.9878C43.789 34.8571 44.8663 33.9979 46.1705 33.597C48.757 32.7977 51.6514 34.1344 52.7605 36.6396L54.522 40.618C54.5791 40.7469 54.6272 40.8796 54.6656 41.0163L60.8239 62.7097C61.4791 65.0196 60.2564 67.4714 57.9805 68.4137ZM58.2033 63.4058L52.0444 41.7089L50.2626 37.6738C49.6985 36.3996 48.2647 35.7083 46.9977 36.0999C46.2722 36.3235 45.7092 36.8078 45.3983 37.466C45.0918 38.1149 45.0825 38.8631 45.3729 39.5189L45.929 40.775C46.2243 41.4418 45.9044 42.2145 45.2148 42.4999C44.5253 42.7854 43.7264 42.4761 43.4312 41.8093L42.2179 39.069C41.6535 37.7943 40.2188 37.103 38.9518 37.4945C38.2273 37.7206 37.6642 38.2025 37.3538 38.8596C37.0467 39.5092 37.0374 40.2574 37.3278 40.9132L38.6086 43.8061C38.9038 44.4729 38.5839 45.2455 37.8944 45.531C37.2049 45.8165 36.406 45.5071 36.1107 44.8403L34.1728 40.4633C33.6084 39.1887 32.1737 38.4973 30.9068 38.8892C30.1873 39.1113 29.6191 39.5969 29.3082 40.2551C29.0018 40.9039 28.9918 41.6529 29.282 42.3083L31.2873 46.8375C31.5826 47.5043 31.2626 48.2769 30.5731 48.5623C29.8836 48.8479 29.0846 48.5385 28.7894 47.8717L20.3514 28.8137C19.7871 27.5392 18.3532 26.8474 17.0862 27.239C16.3635 27.4647 15.7976 27.9469 15.4875 28.6048C15.1805 29.2544 15.1712 30.0026 15.4614 30.658L26.7848 56.2329C26.9919 56.7008 26.9009 57.2428 26.5507 57.6232C26.2021 58.0029 25.6567 58.1553 25.1508 58.0102L17.1712 55.7277C16.4616 55.5246 15.723 55.582 15.0945 55.8422C14.4729 56.0996 13.9592 56.5551 13.6899 57.1542C13.3795 57.8428 13.3734 58.5972 13.6733 59.2788C13.9731 59.9614 14.5338 60.4792 15.2523 60.7372L32.2695 67.9971C32.9646 68.2936 33.5891 68.7478 34.0762 69.3091L36.9147 72.5842C37.5613 73.3298 38.6167 73.5729 39.5413 73.1901L56.911 65.9982C57.9461 65.5696 58.5013 64.4549 58.2033 63.4058Z" fill="#20C6B6"/>
</svg>
