<svg width="37" height="37" viewBox="0 0 37 37" fill="none" xmlns="http://www.w3.org/2000/svg">
<path fill-rule="evenodd" clip-rule="evenodd" d="M18.5 0C23.5875 0 28.2125 2.06023 31.5761 5.42386C34.9398 8.7875 37 13.4125 37 18.5C37 21.9477 36.033 25.1852 34.3932 27.9602H33.2159C32.6693 27.9602 32.1648 27.6659 31.8705 27.2034C31.5761 26.6989 31.5761 26.1523 31.8284 25.6477C32.7955 23.8398 33.4261 21.8216 33.5943 19.6773H31.9545C31.5341 19.6773 31.1557 19.3409 31.1557 18.8784V18.0795C31.1557 17.6591 31.492 17.2807 31.9545 17.2807H33.5943C33.4261 15.3886 32.9636 13.5807 32.1648 11.9409L30.7352 12.7398C30.3568 12.95 29.8523 12.8239 29.642 12.4455L29.2636 11.7727C29.0534 11.3943 29.1795 10.8898 29.558 10.6795L30.9875 9.88068C30.483 9.12386 29.8523 8.40909 29.2216 7.73636C28.5489 7.06364 27.8761 6.475 27.0773 5.97045L26.2784 7.4C26.0682 7.77841 25.5636 7.90454 25.1852 7.69432L24.5125 7.31591C24.1341 7.10568 24.008 6.60114 24.2182 6.22273L25.017 4.79318C23.3773 3.99432 21.5693 3.53182 19.6773 3.36364V5.00341C19.6773 5.42386 19.3409 5.80227 18.8784 5.80227H18.0795C17.6591 5.80227 17.2807 5.46591 17.2807 5.00341V3.36364C15.3886 3.48977 13.5807 3.99432 11.9409 4.79318L12.7398 6.22273C12.95 6.60114 12.8239 7.10568 12.4455 7.31591L11.7727 7.69432C11.3943 7.90454 10.8898 7.77841 10.6795 7.4L9.88068 5.97045C9.12386 6.51705 8.40909 7.10568 7.73636 7.73636C7.06364 8.40909 6.475 9.08182 5.97045 9.88068L7.4 10.6795C7.77841 10.8898 7.90454 11.3943 7.69432 11.7727L7.31591 12.4455C7.10568 12.8239 6.60114 12.95 6.22273 12.7398L4.79318 11.9409C3.99432 13.5807 3.53182 15.3886 3.36364 17.2807H5.04545C5.46591 17.2807 5.84432 17.617 5.84432 18.0795V18.8784C5.84432 19.2989 5.50795 19.6773 5.04545 19.6773H3.40568C3.57386 21.8216 4.20455 23.8398 5.17159 25.6477C5.42386 26.1523 5.42386 26.6989 5.12955 27.2034C4.83523 27.708 4.37273 27.9602 3.78409 27.9602H2.60682C0.967045 25.1852 0 21.9477 0 18.458C0 13.3705 2.06023 8.70341 5.42386 5.38182C8.74545 2.06023 13.4125 0 18.5 0Z" fill="#20C6B6"/>
<path fill-rule="evenodd" clip-rule="evenodd" d="M16.1457 19.9291C15.3469 18.6257 16.1457 16.6495 17.0287 16.1029C17.1128 16.0609 23.1253 14.3791 25.69 13.6222C25.8162 13.5802 25.9423 13.6222 26.0264 13.7484C26.1105 13.8745 26.0684 14.0007 25.9844 14.0847C24.1764 16.0609 20.0559 20.7279 19.9719 20.77C19.0889 21.3586 16.9446 21.2325 16.1457 19.9291Z" fill="#20C6B6"/>
</svg>
