<svg width="16" height="20" viewBox="0 0 16 20" fill="none" xmlns="http://www.w3.org/2000/svg">
<path d="M0.363438 18.3633H12.1327C12.282 18.3633 12.4022 18.4878 12.4022 18.6425V19.4758C12.4022 19.6288 12.282 19.7533 12.1327 19.7533H0.363438C0.214124 19.7533 0.0942383 19.6288 0.0942383 19.4758V18.6425C0.0942383 18.4878 0.214124 18.3633 0.363438 18.3633Z" fill="white"/>
<path d="M11.7831 17.7426H0.713379V1.56188C0.713379 0.708625 1.38204 0.015625 2.20531 0.015625H10.2912C11.1142 0.015625 11.7834 0.708625 11.7834 1.56188V17.7426H11.7831ZM9.89655 6.26837V3.14162C9.89655 2.49487 9.39048 1.97212 8.7662 1.97212H3.72957C3.1053 1.97212 2.60115 2.49462 2.60115 3.14162V6.26812C2.60115 6.91312 3.1053 7.43738 3.72957 7.43738H8.7662C9.39072 7.43762 9.89655 6.91337 9.89655 6.26837Z" fill="white"/>
<path d="M13.2373 16.4271C13.2373 16.9569 13.6519 17.3869 14.1631 17.3869C14.6742 17.3869 15.0894 16.9569 15.0894 16.4271V8.09863H15.6538V16.4271C15.6538 17.2821 14.9861 17.9736 14.1631 17.9736C13.34 17.9736 12.6709 17.2821 12.6709 16.4271V12.2631H13.2373V16.4271Z" fill="white"/>
<path d="M12.6782 2.51444L14.8062 4.78769V6.66969C14.8062 6.99319 15.0602 7.25444 15.3721 7.25444C15.6826 7.25444 15.9366 6.99319 15.9366 6.66969V4.31319L13.4894 1.69869C13.2733 1.46594 12.9146 1.45869 12.6917 1.68444C12.4671 1.91019 12.4618 2.28169 12.6782 2.51444Z" fill="white"/>
</svg>
