<svg width="25" height="25" viewBox="0 0 25 25" fill="none" xmlns="http://www.w3.org/2000/svg">
<path d="M17.5656 0H7.2323C3.24467 0 0 3.2457 0 7.23437V17.5677C0 21.5553 3.2457 24.8 7.23437 24.8H17.5677C21.5553 24.8 24.8 21.5543 24.8 17.5656V7.2323C24.8 3.24467 21.5543 0 17.5656 0ZM12.4 18.6C8.9807 18.6 6.2 15.8193 6.2 12.4C6.2 8.9807 8.9807 6.2 12.4 6.2C15.8193 6.2 18.6 8.9807 18.6 12.4C18.6 15.8193 15.8193 18.6 12.4 18.6ZM19.6333 6.2C19.0629 6.2 18.6 5.73707 18.6 5.16667C18.6 4.59627 19.0629 4.13333 19.6333 4.13333C20.2037 4.13333 20.6667 4.59627 20.6667 5.16667C20.6667 5.73707 20.2037 6.2 19.6333 6.2Z" fill="#F4F4F5"/>
</svg>
