<svg width="64" height="61" viewBox="0 0 64 61" fill="none" xmlns="http://www.w3.org/2000/svg">
<rect x="0.796112" y="0.687744" width="63" height="60" rx="4" fill="#E7FFFD"/>
<path d="M25.4782 21.893L25.3232 21.8854C25.3239 21.6658 25.3896 21.4514 25.5125 21.2636C25.6354 21.0758 25.8114 20.9208 26.0225 20.8136C26.2335 20.7064 26.473 20.6504 26.7171 20.6517C26.9613 20.653 27.2021 20.7117 27.4149 20.8228L27.3434 20.9456L27.4149 20.8228L49.8068 32.5218L49.7347 32.6455L49.8068 32.5218C50.019 32.6326 50.1955 32.7917 50.3178 32.9832C50.4401 33.1747 50.5034 33.391 50.5019 33.61C50.5004 33.829 50.4343 34.0425 50.3114 34.2295C50.1886 34.4165 50.013 34.571 49.8026 34.6778L27.337 46.0902C27.1266 46.1971 26.8879 46.2531 26.6445 46.2521C26.4011 46.2512 26.161 46.1932 25.9484 46.083L26.02 45.9591L25.9484 46.083C25.7358 45.9728 25.5588 45.8142 25.4357 45.6231C25.3127 45.4319 25.2487 45.2158 25.2494 44.9967L25.4054 45.0044L25.4782 21.893ZM25.4782 21.893L25.3232 21.8854L25.2494 44.9967L25.4782 21.893ZM47.3077 33.5818L27.5459 43.6207L27.6108 23.2909L47.3077 33.5818Z" fill="#20C6B6" stroke="#20C6B6" stroke-width="0.3"/>
</svg>
