<svg width="33" height="33" viewBox="0 0 33 33" fill="none" xmlns="http://www.w3.org/2000/svg">
<path d="M13.8334 22.5006L21.8334 16.5006L13.8334 10.5006V22.5006ZM16.5001 3.16724C9.14008 3.16724 3.16675 9.14057 3.16675 16.5006C3.16675 23.8606 9.14008 29.8339 16.5001 29.8339C23.8601 29.8339 29.8334 23.8606 29.8334 16.5006C29.8334 9.14057 23.8601 3.16724 16.5001 3.16724ZM16.5001 27.1672C10.6201 27.1672 5.83341 22.3806 5.83341 16.5006C5.83341 10.6206 10.6201 5.8339 16.5001 5.8339C22.3801 5.8339 27.1667 10.6206 27.1667 16.5006C27.1667 22.3806 22.3801 27.1672 16.5001 27.1672Z" fill="white"/>
</svg>
