<svg width="71" height="59" viewBox="0 0 71 59" fill="none" xmlns="http://www.w3.org/2000/svg">
<path fill-rule="evenodd" clip-rule="evenodd" d="M68.9951 52C70.1024 52 71 51.1033 71 50.0037V12.8957C71 11.7932 70.3669 10.2664 69.5863 9.48575L61.5143 1.41374C60.7335 0.632955 59.1988 0 58.1077 0H34.9928C33.8922 0 33 0.8939 33 2.00488V2.99512C33 4.10238 32.1134 5 30.9941 5H28.0059C26.8981 5 26 5.89222 26 7.00209V56.9979C26 58.1036 26.8915 59 27.9973 59H64.0027C65.1058 59 66 58.1134 66 56.9941V54.0059C66 52.8981 66.8939 52 68.0049 52H68.9951ZM67.0031 45.9925C67.0014 47.1012 66.1022 48 65.0084 48H38.9916C37.8917 48 37.0008 47.1011 37.0017 45.995L37.0358 6.00413C37.0367 4.89682 37.9382 3.99899 39.0475 3.99876L55.99 3.99528C57.1001 3.99505 58 4.89123 58 5.9934V8.99777C58 11.2081 59.7889 13 61.9978 13H65.045C66.1548 13 67.0531 13.9003 67.0514 15.0075L67.0031 45.9925ZM61.0072 55C61.5555 55 62 54.5573 62 54.001V52.999C62 52.4472 61.5445 52 61.0018 52H34.9933C33.8924 52 33 51.1019 33 49.998V9.99961C33 9.44754 32.5573 9 32.001 9H30.999C30.4472 9 30 9.45528 30 10.0036V52.9939C30 54.1018 30.8893 55 32.0017 55H61.0072ZM20 23C21.1046 23 22 22.1046 22 21C22 19.8954 21.1046 19 20 19H13C11.8954 19 11 19.8954 11 21C11 22.1046 11.8954 23 13 23H20ZM20 31C21.1046 31 22 30.1046 22 29C22 27.8954 21.1046 27 20 27H2C0.89543 27 0 27.8954 0 29C0 30.1046 0.89543 31 2 31H20ZM20 39C21.1046 39 22 38.1046 22 37C22 35.8954 21.1046 35 20 35H8C6.89543 35 6 35.8954 6 37C6 38.1046 6.89543 39 8 39H20Z" fill="#20C6B6"/>
</svg>
