<svg width="64" height="61" viewBox="0 0 64 61" fill="none" xmlns="http://www.w3.org/2000/svg">
<rect x="0.796112" y="0.687744" width="63" height="60" rx="4" fill="#E7FFFD"/>
<path d="M32.2961 15.269L14.5935 19.7538V33.2084C14.5935 40.6399 22.5182 46.6629 32.2961 46.6629C42.074 46.6629 49.9987 40.6399 49.9987 33.2084V19.7538L32.2961 15.269ZM46.6795 33.2084C46.6795 39.2454 40.2392 44.1402 32.2961 44.1402C24.353 44.1402 17.9128 39.2454 17.9128 33.2084V21.6459L32.2961 17.7917L46.6795 21.6459V33.2084Z" fill="#20C6B6"/>
<path d="M26.137 29.6729C25.9832 29.5555 25.8004 29.4623 25.599 29.3987C25.3977 29.3351 25.1818 29.3024 24.9638 29.3024C24.7458 29.3024 24.5299 29.3351 24.3285 29.3987C24.1272 29.4623 23.9443 29.5555 23.7905 29.6729C23.636 29.7898 23.5134 29.9288 23.4297 30.0818C23.346 30.2348 23.303 30.3989 23.303 30.5646C23.303 30.7303 23.346 30.8944 23.4297 31.0475C23.5134 31.2005 23.636 31.3394 23.7905 31.4563L29.7559 35.9902L29.8528 36.0638C29.9983 36.1746 30.1711 36.2625 30.3613 36.3225C30.5516 36.3824 30.7555 36.4133 30.9615 36.4133C31.1674 36.4133 31.3714 36.3824 31.5616 36.3225C31.7519 36.2625 31.9247 36.1746 32.0702 36.0638L42.3737 28.2329C42.5194 28.1223 42.6351 27.9909 42.714 27.8463C42.7929 27.7018 42.8335 27.5468 42.8335 27.3902C42.8335 27.2337 42.7929 27.0787 42.714 26.9341C42.6351 26.7895 42.5194 26.6581 42.3737 26.5476L42.2446 26.4494C42.0991 26.3387 41.9263 26.2508 41.736 26.1908C41.5458 26.1308 41.3418 26.0999 41.1359 26.0999C40.9299 26.0999 40.726 26.1308 40.5357 26.1908C40.3455 26.2508 40.1726 26.3387 40.0271 26.4494L30.9592 33.3379L26.137 29.6729Z" fill="#20C6B6"/>
</svg>
