<svg width="49" height="43" viewBox="0 0 49 43" fill="none" xmlns="http://www.w3.org/2000/svg">
<path d="M48.5922 24.013C48.1813 22.8043 47.3594 21.8155 46.2807 21.2661C45.1507 20.7168 43.9179 20.6618 42.7878 21.1562L31.1791 26.0456C30.7682 25.6061 30.3059 25.2765 29.7923 25.1117L20.7519 21.9803C18.2349 21.1013 15.5639 21.1013 13.0983 21.9803L10.4273 22.9142V22.1451C10.4273 21.4859 9.91363 20.8816 9.24587 20.8816H1.18142C0.565026 20.8816 0 21.4309 0 22.1451V41.4279C0 42.0871 0.51366 42.6914 1.18142 42.6914H9.29724C9.91363 42.6914 10.4787 42.1421 10.4787 41.4279V40.8785L26.9671 42.7464C27.3267 42.8013 27.6863 42.8013 28.0458 42.8013C30.3573 42.8013 32.6174 41.9773 34.4152 40.3841L47.2053 29.2869C48.5922 27.9684 49.1572 25.8808 48.5922 24.013ZM8.11582 40.2193H2.31147V23.3537H8.11582V40.2193ZM45.7157 27.3092L32.9256 38.4064C31.2819 39.8347 29.2272 40.494 27.1726 40.2193L10.4787 38.3514V25.4962L13.8688 24.2876C15.8721 23.5735 18.0295 23.5735 20.0327 24.2876L29.0731 27.419C29.3813 27.5289 29.6382 27.7487 29.7923 28.0783C29.9464 28.4079 29.9464 28.7375 29.8436 29.0671C29.6382 29.6165 29.1245 30.0011 28.5595 29.9461L18.8513 28.9573C18.2349 28.9023 17.6699 29.3968 17.6185 30.056C17.5672 30.7152 18.0295 31.3195 18.6458 31.3745L28.354 32.3633C28.4567 32.3633 28.5595 32.3633 28.6622 32.3633C30.1518 32.3633 31.4873 31.3745 32.001 29.8362C32.1551 29.2869 32.2578 28.7375 32.1551 28.1332L43.6097 23.3537C44.1747 23.134 44.7398 23.134 45.2534 23.4087C45.7671 23.6833 46.178 24.1228 46.3835 24.7271C46.6403 25.716 46.3835 26.7049 45.7157 27.3092Z" fill="#20C6B6"/>
<path d="M8.21859 15.4977C8.42405 15.7175 8.73225 15.8823 9.04044 15.8823H23.6284C25.3235 19.1785 28.5595 21.2661 32.1038 21.2661C37.4458 21.2661 41.8119 16.5964 41.8119 10.883C41.8119 5.16962 37.4458 0.5 32.1038 0.5C28.5595 0.5 25.3235 2.58759 23.6284 5.8838H21.6765C21.3683 5.8838 21.0601 6.04861 20.8032 6.26835L19.5191 7.75164L18.235 6.32329C18.0295 6.04861 17.7213 5.93873 17.3617 5.93873H15.3585C15.0503 5.93873 14.7421 6.10354 14.4852 6.32329L13.2011 7.80658L11.9169 6.32329C11.7115 6.04861 11.4033 5.93873 11.0437 5.93873H8.98908C8.68088 5.93873 8.37269 6.04861 8.16722 6.32329L4.77707 10.059C4.36614 10.5534 4.36614 11.3225 4.77707 11.762L8.21859 15.4977ZM9.50274 8.41088H10.5814L12.3792 10.4985C12.5847 10.7732 12.8929 10.883 13.2525 10.883C13.5606 10.883 13.8688 10.7182 14.1257 10.4985L15.9235 8.41088H16.8994L18.6972 10.4985C18.9027 10.7732 19.2109 10.883 19.5705 10.883C19.8787 10.883 20.1869 10.7182 20.4437 10.4985L22.2415 8.41088H24.3989C24.8612 8.41088 25.2721 8.1362 25.4776 7.69671C26.659 4.89494 29.33 3.02709 32.2065 3.02709C36.2644 3.02709 39.6032 6.54304 39.6032 10.938C39.6032 15.3329 36.1617 18.7939 32.1038 18.7939C29.2273 18.7939 26.5562 16.981 25.3748 14.1243C25.1694 13.6848 24.7584 13.4101 24.2961 13.4101H9.50274L7.24263 10.883L9.50274 8.41088Z" fill="#20C6B6"/>
<path d="M33.4393 14.7286C35.3912 14.7286 36.9835 13.0256 36.9835 10.938C36.9835 8.85039 35.3912 7.14735 33.4393 7.14735C31.4874 7.14735 29.895 8.85039 29.895 10.938C29.895 13.0256 31.4874 14.7286 33.4393 14.7286ZM33.4393 9.56457C34.107 9.56457 34.6721 10.1689 34.6721 10.883C34.6721 11.5972 34.107 12.2015 33.4393 12.2015C32.7715 12.2015 32.2065 11.5972 32.2065 10.883C32.2065 10.1689 32.7715 9.56457 33.4393 9.56457Z" fill="#20C6B6"/>
</svg>
