<svg width="30" height="37" viewBox="0 0 30 37" fill="none" xmlns="http://www.w3.org/2000/svg">
<path fill-rule="evenodd" clip-rule="evenodd" d="M26.4779 13.3405H20.0516C20.6358 11.7172 21.3758 9.23465 21.3758 6.5611C21.3758 4.03078 20.2463 2.02562 18.2211 0.879814C17.4421 0.450137 16.5463 0.450137 15.8063 0.879814C15.0274 1.30949 14.4821 2.16885 14.2874 3.17143L13.8979 5.03336C13.1968 8.3753 11.7168 11.2398 9.73053 13.1972C9.34105 13.5792 8.95158 13.8656 8.56211 14.1521L8.56211 14.1521C8.25053 13.6747 7.74421 13.3882 7.19895 13.3882H2.29158C1.31789 13.3882 0.5 14.3908 0.5 15.5843V33.4398C0.5 34.6334 1.31789 35.6359 2.29158 35.6359H7.16C7.78316 35.6359 8.28947 35.254 8.64 34.6811C11.6 35.7314 14.3653 36.2566 17.3253 36.2566H24.4526C26.1663 36.2566 27.5684 34.5379 27.5684 32.4372C27.5684 31.7688 27.4126 31.1005 27.14 30.5276C27.9968 29.8592 28.581 28.6656 28.581 27.3288C28.581 26.6605 28.4253 25.9921 28.1526 25.4192C29.0095 24.7508 29.5937 23.5572 29.5937 22.2205C29.5937 21.2179 29.2821 20.3585 28.7758 19.6901C29.2821 19.0218 29.5937 18.1147 29.5937 17.1598C29.5937 15.0592 28.1916 13.3405 26.4779 13.3405ZM24.5305 20.9314H26.4779C27.0621 20.9314 27.5295 21.5043 27.5295 22.2205C27.5295 22.9366 27.0621 23.5095 26.4779 23.5095H24.1411C23.5568 23.5095 23.1284 24.0824 23.1284 24.7508C23.1284 25.4669 23.5958 25.9921 24.1411 25.9921H25.4653C26.0495 25.9921 26.5168 26.565 26.5168 27.2811C26.5168 27.9972 26.0495 28.5701 25.4653 28.5701H23.4011C22.8558 28.5701 22.3884 29.143 22.3884 29.8114C22.3884 30.5276 22.8558 31.0527 23.4011 31.0527H24.4526C25.0368 31.0527 25.5042 31.6256 25.5042 32.3418C25.5042 33.0579 25.0368 33.6308 24.4526 33.6308H17.3253C14.4821 33.6308 11.8726 33.1056 8.99053 32.0553V16.7301C9.65263 16.3005 10.3537 15.823 10.9768 15.1547C13.3137 12.863 15.0663 9.5211 15.8453 5.65401L16.2347 3.79207C16.3126 3.41014 16.5463 3.21917 16.6632 3.17143C16.78 3.07594 17.0526 2.98046 17.3642 3.17143C18.6884 3.9353 19.3116 5.03336 19.3116 6.5611C19.3116 10.3805 17.52 13.8656 17.4811 13.9134C17.2863 14.2953 17.2863 14.7727 17.4421 15.2024C17.6368 15.5843 17.9484 15.8708 18.3379 15.8708H26.4779C27.0621 15.8708 27.5295 16.4437 27.5295 17.1598C27.5295 17.8759 27.0621 18.4488 26.4779 18.4488H24.5305C23.9463 18.4488 23.5179 19.0218 23.5179 19.6901C23.5179 20.3585 23.9853 20.9314 24.5305 20.9314ZM3 15.935C2.44772 15.935 2 16.3827 2 16.935V32.0963C2 32.6485 2.44772 33.0963 3 33.0963H6C6.55228 33.0963 7 32.6485 7 32.0963V16.935C7 16.3827 6.55228 15.935 6 15.935H3Z" fill="#20C6B6"/>
</svg>
