<svg width="18" height="17" viewBox="0 0 18 17" fill="none" xmlns="http://www.w3.org/2000/svg">
<path d="M16.891 6.1845L11.8329 5.44938L9.57172 0.865359C9.50996 0.739851 9.40836 0.63825 9.28285 0.576492C8.96809 0.421101 8.58558 0.550593 8.4282 0.865359L6.16707 5.44938L1.10891 6.1845C0.969453 6.20442 0.841953 6.27016 0.744336 6.36977C0.626322 6.49107 0.561291 6.65426 0.563533 6.82348C0.565774 6.9927 0.635104 7.15411 0.756289 7.27223L4.41594 10.8402L3.55133 15.8785C3.53105 15.9957 3.54402 16.1162 3.58877 16.2264C3.63351 16.3366 3.70824 16.4321 3.80447 16.502C3.90071 16.5719 4.01461 16.6134 4.13324 16.6219C4.25189 16.6303 4.37052 16.6054 4.4757 16.5499L8.99996 14.1712L13.5242 16.5499C13.6477 16.6156 13.7912 16.6375 13.9286 16.6136C14.2753 16.5538 14.5084 16.2251 14.4486 15.8785L13.584 10.8402L17.2436 7.27223C17.3432 7.17462 17.409 7.04712 17.4289 6.90766C17.4827 6.55903 17.2396 6.2363 16.891 6.1845Z" fill="#F9D145"/>
</svg>
