<svg width="38" height="52" viewBox="0 0 38 52" fill="none" xmlns="http://www.w3.org/2000/svg">
<path d="M32.6531 31.3467L32.5309 31.53L20.5371 50.8748C20.3545 51.1695 20.0997 51.4126 19.7968 51.5813C19.4939 51.7499 19.153 51.8384 18.8063 51.8384C18.4596 51.8384 18.1187 51.7499 17.8158 51.5813C17.5129 51.4126 17.2581 51.1695 17.0754 50.8748M32.6531 31.3467L35.7279 26.3375M32.6531 31.3467L32.44 31.216L32.4425 31.2119M32.6531 31.3467L32.4451 31.2081L32.4425 31.2119M35.7279 26.3375C35.7828 26.2463 35.8304 26.151 35.8704 26.0524C36.1539 25.3905 36.392 24.7102 36.5831 24.0161M35.7279 26.3375L35.5137 26.2085L32.4425 31.2119M35.7279 26.3375L35.5148 26.2067L35.5143 26.2075C35.5622 26.1278 35.6038 26.0446 35.6387 25.9584L35.6406 25.9539L35.6406 25.9539C35.9192 25.3034 36.1534 24.6347 36.3414 23.9524M36.5831 24.0161C36.9702 22.4783 37.1618 20.8979 37.1533 19.3122C37.1533 14.4517 35.2224 9.79026 31.7855 6.35334C28.3486 2.91643 23.6872 0.985596 18.8266 0.985596C13.9661 0.985596 9.30466 2.91643 5.86775 6.35334C2.43084 9.79026 0.5 14.4517 0.5 19.3122M36.5831 24.0161L36.3407 23.9551C36.3409 23.9542 36.3411 23.9533 36.3414 23.9524M36.5831 24.0161L36.3421 23.9497C36.3418 23.9506 36.3416 23.9515 36.3414 23.9524M0.5 19.3122C0.501657 20.857 0.693147 22.3958 1.07016 23.8939M0.5 19.3122L0.75 19.312C0.75 19.312 0.75 19.3121 0.75 19.3121M0.5 19.3122H0.75C0.75 19.3122 0.75 19.3122 0.75 19.3121M1.07016 23.8939C1.25437 24.5876 1.48568 25.268 1.7625 25.9302C1.80249 26.0288 1.85015 26.1241 1.90504 26.2153M1.07016 23.8939L1.31179 23.8297C1.31193 23.8303 1.31207 23.8308 1.31221 23.8313M1.07016 23.8939L1.3126 23.8329C1.31247 23.8324 1.31234 23.8318 1.31221 23.8313M1.90504 26.2153L4.97985 31.2246M1.90504 26.2153L2.11811 26.0845L2.11868 26.0854C2.07075 26.0057 2.02912 25.9224 1.99417 25.8362L1.99316 25.8338C1.72094 25.1825 1.49343 24.5135 1.31221 23.8313M1.90504 26.2153L2.11921 26.0863L5.18683 31.0839M4.97985 31.2246L5.10202 31.3875L17.0754 50.8748M4.97985 31.2246L5.17985 31.0746L5.18683 31.0839M4.97985 31.2246L5.19291 31.0938L5.18683 31.0839M17.0754 50.8748L17.2879 50.7431L5.31503 31.2566L5.30897 31.2467L5.30202 31.2375L5.18683 31.0839M17.0754 50.8748L17.2884 50.7439L17.2883 50.7437C17.4485 51.0019 17.6719 51.215 17.9374 51.3628C18.2031 51.5108 18.5022 51.5884 18.8063 51.5884C19.1104 51.5884 19.4095 51.5108 19.6752 51.3628C19.9409 51.2149 20.1644 51.0016 20.3246 50.7431L20.3247 50.7431L32.3184 31.3983L32.3228 31.3913L32.3229 31.3913L32.4425 31.2119M36.3414 23.9524C36.7229 22.4359 36.9117 20.8773 36.9033 19.3136L36.9033 19.3122C36.9033 14.518 34.9988 9.92015 31.6088 6.53012C28.2187 3.14009 23.6209 1.2356 18.8266 1.2356C14.0324 1.2356 9.43455 3.14009 6.04453 6.53012C2.65453 9.92012 0.750034 14.5179 0.75 19.3121M0.75 19.3121C0.751646 20.8359 0.940464 22.3536 1.31221 23.8313M32.8745 22.9393L32.8751 22.9369C33.1741 21.752 33.3271 20.535 33.3307 19.313V19.3122C33.3307 15.4655 31.8026 11.7764 29.0826 9.05632C26.3625 6.33628 22.6734 4.80818 18.8266 4.80818C14.9799 4.80818 11.2908 6.33628 8.57073 9.05632C5.85069 11.7764 4.32259 15.4655 4.32259 19.3122L4.32259 19.3126C4.3245 20.5416 4.47751 21.7657 4.77817 22.9573L4.77814 22.9573L4.7791 22.9608C4.90816 23.4423 5.06803 23.915 5.25773 24.3759L5.26521 24.3941L5.27544 24.4109L8.16698 29.1555L8.17324 29.1657L8.18046 29.1754L8.29574 29.3291L18.6137 46.0983L18.8266 46.4444L19.0396 46.0983L29.3612 29.3232L29.4808 29.1437L29.481 29.1438L29.4861 29.1355L32.3776 24.4113L32.3882 24.3939L32.3959 24.375C32.5863 23.9073 32.7461 23.4277 32.8745 22.9393ZM13.309 11.0545C14.9422 9.96324 16.8624 9.38077 18.8266 9.38077C21.4606 9.38077 23.9867 10.4271 25.8492 12.2896C27.7118 14.1521 28.7581 16.6783 28.7581 19.3122C28.7581 21.2765 28.1756 23.1966 27.0844 24.8299C25.9931 26.4631 24.442 27.736 22.6273 28.4877C20.8125 29.2394 18.8156 29.4361 16.8891 29.0529C14.9626 28.6697 13.193 27.7238 11.804 26.3348C10.4151 24.9459 9.46921 23.1763 9.086 21.2498C8.7028 19.3233 8.89947 17.3264 9.65116 15.5116C10.4029 13.6969 11.6758 12.1458 13.309 11.0545ZM15.2938 24.5995C16.3395 25.2982 17.569 25.6711 18.8266 25.6711C20.5131 25.6711 22.1305 25.0012 23.323 23.8086C24.5156 22.6161 25.1855 20.9987 25.1855 19.3122C25.1855 18.0546 24.8126 16.8251 24.1139 15.7794C23.4151 14.7337 22.422 13.9187 21.2601 13.4374C20.0981 12.9561 18.8196 12.8302 17.5861 13.0755C16.3526 13.3209 15.2195 13.9265 14.3302 14.8158C13.4409 15.7051 12.8353 16.8382 12.5899 18.0717C12.3446 19.3052 12.4705 20.5837 12.9518 21.7457C13.4331 22.9076 14.2481 23.9007 15.2938 24.5995Z" fill="#20C6B6" stroke="#E7FFFD" stroke-width="0.5"/>
</svg>
