<svg width="84" height="84" viewBox="0 0 84 84" fill="none" xmlns="http://www.w3.org/2000/svg">
<path d="M34.7592 35.761C32.8645 35.7956 30.985 36.6698 29.6026 38.1598L13.4272 55.5883C10.6738 58.5548 10.4736 62.8374 12.9712 65.3376L18.4555 70.8287C19.0308 71.3962 19.714 71.8437 20.4653 72.1449C21.2165 72.4462 22.0206 72.5951 22.8304 72.583C24.6853 72.583 26.6334 71.8386 28.2094 70.3722L45.6169 54.1774C47.1031 52.7946 47.9753 50.9162 48.0101 49.0237C48.0365 48.2717 47.9097 47.5222 47.6373 46.8203C47.3649 46.1184 46.9526 45.4787 46.4251 44.9396L38.8452 37.3506C38.3086 36.823 37.6694 36.4099 36.9669 36.1366C36.2643 35.8632 35.5131 35.7354 34.7592 35.761ZM26.8326 68.9064C24.6658 70.9227 21.614 71.1457 19.8844 69.4143L14.4004 63.9231C12.6666 62.1873 12.8887 59.1248 14.9077 56.9495L17.7262 53.9126L29.8754 66.0763L26.8326 68.9064ZM31.3479 64.7058L19.0946 52.4376L26.2212 44.7592L39.0171 57.5709L31.3479 64.7058ZM45.9948 48.9867C45.97 50.3399 45.3305 51.6975 44.2405 52.7116L40.4903 56.2007L27.5903 43.2846L31.0822 39.5212C32.0941 38.431 33.4475 37.7915 34.7955 37.7669C34.8215 37.7669 34.8471 37.7669 34.8728 37.7669C35.342 37.757 35.8084 37.8403 36.245 38.0118C36.6815 38.1832 37.0793 38.4395 37.4153 38.7657L44.9952 46.3547C45.3314 46.7037 45.5933 47.1168 45.765 47.5691C45.9368 48.0214 46.015 48.5036 45.9948 48.9867Z" fill="#20C6B6" stroke="#20C6B6"/>
<path d="M37.1635 34.692C37.6481 34.6932 38.1281 34.5982 38.5755 34.4128C39.0229 34.2273 39.4287 33.955 39.7692 33.6118C40.4573 32.9197 40.8433 31.9852 40.8433 31.0115C40.8433 30.0377 40.4573 29.1033 39.7692 28.4111C39.428 28.0689 39.022 27.7973 38.5748 27.6119C38.1276 27.4265 37.648 27.3311 37.1636 27.3311C36.6792 27.3311 36.1995 27.4265 35.7523 27.6119C35.3051 27.7973 34.8992 28.0689 34.558 28.4111C33.8699 29.1033 33.4839 30.0378 33.4839 31.0116C33.4839 31.9853 33.8699 32.9198 34.558 33.612C34.8985 33.9551 35.3043 34.2274 35.7516 34.4128C36.199 34.5982 36.6789 34.6931 37.1635 34.692ZM35.9877 29.8255C36.1416 29.671 36.3248 29.5483 36.5266 29.4645C36.7284 29.3808 36.9449 29.3377 37.1635 29.3377C37.3821 29.3377 37.5986 29.3808 37.8004 29.4645C38.0022 29.5483 38.1854 29.671 38.3393 29.8255C38.6531 30.1412 38.8291 30.5674 38.8291 31.0115C38.8291 31.4556 38.6531 31.8817 38.3393 32.1974C38.1854 32.352 38.0022 32.4747 37.8004 32.5584C37.5986 32.6422 37.3821 32.6853 37.1635 32.6853C36.9449 32.6853 36.7284 32.6422 36.5266 32.5584C36.3248 32.4747 36.1416 32.352 35.9877 32.1974C35.6739 31.8818 35.4977 31.4557 35.4976 31.0116C35.4974 30.5676 35.6732 30.1414 35.9869 29.8255H35.9877Z" fill="#20C6B6" stroke="#20C6B6"/>
<path d="M82.0436 1.68352C81.6529 1.29717 81.1648 1.02275 80.6307 0.889126C80.0966 0.755497 79.5362 0.767599 79.0084 0.924158L72.4875 2.81338C72.3237 2.86081 72.1747 2.94888 72.0545 3.06934L68.161 6.96682C68.0949 7.03277 68.0384 7.10755 67.993 7.18901L65.1963 12.2309L62.1422 13.1608C61.9835 13.209 61.8392 13.2956 61.7222 13.4127L55.0591 20.0835C54.9132 20.2295 54.816 20.4167 54.7808 20.6197L54.3262 23.2357H52.4047C52.2718 23.2357 52.1403 23.2618 52.0176 23.3126C51.895 23.3634 51.7836 23.4378 51.69 23.5316L46.6212 28.6066L43.9051 25.8873C42.9396 24.9184 41.7861 24.1552 40.5148 23.644C39.2436 23.1328 37.8812 22.8844 36.5104 22.9138C35.1397 22.9433 33.7893 23.25 32.5414 23.8153C31.2935 24.3806 30.1742 25.1926 29.2515 26.2021L3.97979 53.7795C2.01078 55.9238 0.947135 58.7406 1.00969 61.645C1.07225 64.5494 2.2562 67.3182 4.31572 69.3766L14.4211 79.4954C16.4671 81.5574 19.2392 82.7455 22.1502 82.8081C25.0611 82.8707 27.8822 81.8029 30.0158 79.8308L57.5581 54.528C58.5668 53.5989 59.3772 52.4772 59.941 51.2298C60.5049 49.9823 60.8106 48.6346 60.8399 47.267C60.8693 45.8994 60.6217 44.54 60.1119 43.2697C59.6021 41.9994 58.8406 40.8443 57.8727 39.8732L55.3419 37.3393L60.4566 32.2185C60.5453 32.1296 60.6165 32.025 60.6666 31.91L61.7896 29.3307L64.5947 27.9932C64.7661 27.9114 64.9108 27.7831 65.0121 27.6231C65.1133 27.463 65.1671 27.2777 65.1671 27.0885V25.3396L67.6779 24.7683C67.8637 24.726 68.0337 24.6321 68.168 24.4976L72.0612 20.5996C72.2291 20.4314 72.3318 20.2095 72.351 19.9732L72.5129 17.9758L74.8114 17.5829C75.0177 17.5477 75.2079 17.4493 75.3554 17.3015L80.8208 11.8295C80.9449 11.7054 81.0341 11.551 81.0795 11.3819L82.8754 4.71497C83.0231 4.1819 83.0239 3.61906 82.8775 3.08561C82.7311 2.55217 82.4431 2.06783 82.0436 1.68352ZM56.4433 41.2876C57.2202 42.0673 57.8314 42.9948 58.2405 44.0146C58.6497 45.0345 58.8485 46.1259 58.825 47.2238C58.8014 48.3217 58.5562 49.4036 58.1037 50.4052C57.6512 51.4068 57.0009 52.3074 56.1914 53.0536L28.6489 78.3564C26.8979 79.9748 24.5826 80.8512 22.1936 80.7998C19.8046 80.7484 17.5296 79.7733 15.8505 78.081L5.74413 67.9622C4.05007 66.2687 3.07634 63.9909 3.02511 61.6017C2.97388 59.2125 3.84908 56.8954 5.469 55.1315L30.7409 27.5556C31.4777 26.7442 32.3738 26.0917 33.374 25.6386C34.3741 25.1855 35.457 24.9413 36.5556 24.9212C36.6158 24.9199 36.6754 24.9192 36.7352 24.9192C37.8033 24.9166 38.8611 25.1261 39.8469 25.5355C40.8326 25.9448 41.7264 26.5458 42.4759 27.3032L56.4433 41.2876ZM80.9283 4.19552L79.2019 10.6045L74.1528 15.6599L71.4004 16.1302C71.1798 16.1679 70.9781 16.2776 70.8271 16.4421C70.6761 16.6065 70.5844 16.8163 70.5665 17.0384L70.3715 19.4459L66.9449 22.8774L63.9352 23.5628C63.7127 23.6135 63.5141 23.7378 63.3718 23.9154C63.2295 24.0931 63.152 24.3135 63.152 24.5407V26.4575L60.5799 27.6839C60.3609 27.7883 60.1871 27.968 60.0906 28.1898L58.8935 30.9393L53.9216 35.9173L48.0427 30.0323L52.8244 25.2449H55.176C55.4135 25.2449 55.6434 25.1614 55.8251 25.0091C56.0068 24.8569 56.1286 24.6456 56.169 24.4127L56.7139 21.2764L62.9746 15.0079L66.1761 14.0302C66.4265 13.9541 66.6373 13.7841 66.764 13.556L69.6905 8.28174L73.3002 4.66765L79.5714 2.85116C79.7562 2.79606 79.9525 2.79184 80.1395 2.83894C80.3265 2.88605 80.4971 2.98271 80.6333 3.11866C80.775 3.25531 80.8772 3.42739 80.9291 3.61686C80.981 3.80632 80.9807 4.00619 80.9283 4.19552Z" fill="#20C6B6" stroke="#20C6B6"/>
</svg>
