<svg width="16" height="21" viewBox="0 0 16 21" fill="none" xmlns="http://www.w3.org/2000/svg">
<path d="M15.138 4.89717C15.3892 4.89717 15.6092 4.70342 15.6459 4.43367C15.6868 4.13867 15.4916 3.86542 15.2106 3.82242L14.2652 3.67992C13.6937 1.86942 12.0892 0.720419 9.56517 0.339169C7.06279 -0.0398312 5.19636 0.596419 4.16041 2.15167L3.21326 2.00817C2.93303 1.96367 2.67136 2.17017 2.63112 2.46567C2.59041 2.76067 2.78541 3.03442 3.0666 3.07692L3.3666 3.12242C2.81707 3.62342 2.44207 4.33292 2.33231 5.13417C2.22017 5.94967 2.39517 6.73817 2.77541 7.36767C2.83184 7.17617 2.98446 7.03567 3.16684 6.99892C3.31588 7.26592 3.50684 7.50042 3.7335 7.68842C3.74184 7.69567 4.22969 8.02142 4.50422 8.09917C4.58612 8.12267 4.66993 8.14317 4.75493 8.15642C4.75493 8.15642 12.2506 9.28242 12.3352 9.28392C12.6192 9.29067 12.8956 9.23692 13.154 9.13267C13.1652 9.12767 13.6999 8.83767 13.9147 8.62642C14.0775 8.71567 14.1849 8.89117 14.1899 9.08792C14.7237 8.59467 15.1042 7.89167 15.2154 7.08292C15.3252 6.28217 15.1564 5.49017 14.764 4.84667L15.0635 4.89217C15.0887 4.89542 15.1135 4.89717 15.138 4.89717ZM7.54755 5.98117C7.50184 6.24192 7.28541 6.42392 7.04231 6.42392C7.01112 6.42392 6.97969 6.42042 6.9485 6.41467L4.61707 5.96392C4.33755 5.90967 4.15279 5.62842 4.20422 5.33492C4.25588 5.04092 4.5285 4.85142 4.80326 4.90142L7.13469 5.35217C7.41374 5.40642 7.59898 5.68767 7.54755 5.98117ZM12.9854 6.89867C12.9468 7.16567 12.7273 7.35767 12.4775 7.35767C12.4521 7.35767 12.4259 7.35517 12.3995 7.35142L10.0683 6.97942C9.78779 6.93442 9.59493 6.65917 9.63707 6.36417C9.67922 6.06917 9.93898 5.87142 10.223 5.91142L12.5542 6.28342C12.8347 6.32842 13.0278 6.60392 12.9854 6.89867ZM5.01922 2.75517C5.66517 1.78942 6.70755 1.31042 8.19731 1.31042C8.5785 1.31042 8.98898 1.34317 9.41826 1.40817C11.5295 1.72692 12.8242 2.60017 13.2818 4.00442L5.01922 2.75517Z" fill="white"/>
<path d="M2.57339 8.78419C2.52173 9.16119 2.61292 9.53669 2.83053 9.84169C2.85196 9.87144 2.87863 9.89594 2.90196 9.92369C1.93506 10.9089 0.140773 12.9084 0.048392 14.2644C-0.0454175 15.6364 1.36268 16.2337 2.60482 16.7604C3.51958 17.1487 4.55649 17.5887 4.7053 18.1989C4.82411 18.6862 4.39768 19.3679 4.01887 19.8542C3.81887 20.1104 3.85506 20.4884 4.09934 20.6984C4.2053 20.7897 4.33339 20.8342 4.46101 20.8342C4.62625 20.8342 4.79053 20.7589 4.90339 20.6139C5.70815 19.5812 6.00553 18.6939 5.81244 17.9014C5.5203 16.7032 4.19887 16.1427 3.03268 15.6479C2.15196 15.2744 1.15363 14.8509 1.18792 14.3497C1.24577 13.5024 2.8453 11.6084 4.04101 10.4434C4.27601 10.4767 4.56125 10.5157 4.59768 10.5157C5.26172 10.5157 5.84506 10.0024 5.94244 9.29294L5.99792 8.88869C5.99792 8.88869 4.47006 8.64844 4.36863 8.61969C4.12053 8.54944 3.88958 8.44244 3.67768 8.30619C3.50839 8.19769 3.3522 8.07044 3.20982 7.92669C3.04482 7.75969 2.89911 7.57219 2.77553 7.36719C2.76768 7.39444 2.75982 7.42144 2.75577 7.45019L2.57339 8.78419Z" fill="white"/>
<path d="M13.073 9.72466C12.8506 9.78766 12.6202 9.82416 12.3835 9.82416L10.6894 9.59816L10.6342 10.0029C10.5697 10.4737 10.7347 10.9242 11.0387 11.2319C10.3152 11.9159 9.29539 13.0782 9.21492 14.2637C9.12087 15.6362 10.5292 16.2334 11.7711 16.7607C12.6863 17.1484 13.7233 17.5884 13.8721 18.1987C13.9906 18.6864 13.5642 19.3677 13.1856 19.8539C12.9856 20.1102 13.0216 20.4882 13.2661 20.6982C13.3721 20.7894 13.4999 20.8339 13.6275 20.8339C13.793 20.8339 13.9573 20.7587 14.0702 20.6137C14.8747 19.5809 15.1723 18.6937 14.9787 17.9012C14.6866 16.7029 13.3652 16.1424 12.1992 15.6477C11.3185 15.2742 10.3204 14.8507 10.3544 14.3494C10.413 13.4919 11.5318 12.3064 12.2968 11.6897C12.4725 11.7137 12.6321 11.7347 12.659 11.7347C13.324 11.7347 13.9066 11.2209 14.0033 10.5117C14.0033 10.5117 14.1911 9.11716 14.1902 9.08691C14.0163 9.24816 13.8266 9.38766 13.6228 9.49941C13.4487 9.59566 13.2637 9.66991 13.073 9.72466Z" fill="white"/>
</svg>
