<svg width="19" height="17" viewBox="0 0 19 17" fill="none" xmlns="http://www.w3.org/2000/svg">
<path d="M19 1.86728C19 0.836 18.1642 0 17.1334 0C16.1017 0 15.2659 0.836 15.2659 1.86728C15.2659 2.67626 15.7814 3.363 16.5017 3.62224V6.13594V6.1446C16.5017 6.80643 15.8969 7.41127 15.235 7.41127H10.1312V3.62224C10.8511 3.363 11.3671 2.67626 11.3671 1.86728C11.3671 0.836 10.5311 0 9.50021 0C8.46872 0 7.63293 0.836 7.63293 1.86728C7.63293 2.67626 8.14868 3.36321 8.86878 3.62224V7.41127H2.49808V3.62224C3.21797 3.36321 3.73392 2.67626 3.73392 1.86728C3.73392 0.836 2.89792 0 1.86707 0C0.835789 0 0 0.836 0 1.86728C0 2.67626 0.515744 3.36321 1.23584 3.62224V12.4667C0.515744 12.7258 0 13.4127 0 14.2219C0 15.2528 0.835789 16.089 1.86728 16.089C2.89813 16.089 3.73413 15.2528 3.73413 14.2219C3.73413 13.4125 3.21818 12.7256 2.49829 12.4667V8.67793H8.86878V12.4667C8.14868 12.7258 7.63293 13.4125 7.63293 14.2219C7.63293 15.2528 8.46872 16.089 9.50021 16.089C10.5311 16.089 11.3671 15.2528 11.3671 14.2219C11.3671 13.4125 10.8513 12.7256 10.1312 12.4667V8.67793H15.235C16.618 8.67793 17.7684 7.51893 17.7684 6.13594H17.7642V3.62224C18.4843 3.36342 19 2.67647 19 1.86728ZM9.50021 1.02684C9.96402 1.02684 10.3402 1.40304 10.3402 1.86728C10.3402 2.33109 9.96402 2.70729 9.50021 2.70729C9.03577 2.70729 8.65978 2.33109 8.65978 1.86728C8.65978 1.40304 9.03577 1.02684 9.50021 1.02684ZM1.86728 1.02684C2.33109 1.02684 2.70729 1.40304 2.70729 1.86728C2.70729 2.33109 2.33109 2.70729 1.86728 2.70729C1.40283 2.70729 1.02684 2.33109 1.02684 1.86728C1.02663 1.40304 1.40283 1.02684 1.86728 1.02684ZM1.86728 15.0624C1.40283 15.0624 1.02684 14.6859 1.02684 14.2221C1.02684 13.7579 1.40283 13.3819 1.86728 13.3819C2.33109 13.3819 2.70729 13.7579 2.70729 14.2221C2.70729 14.6859 2.33109 15.0624 1.86728 15.0624ZM9.50021 15.0624C9.03577 15.0624 8.65978 14.6859 8.65978 14.2221C8.65978 13.7579 9.03577 13.3819 9.50021 13.3819C9.96402 13.3819 10.3402 13.7579 10.3402 14.2221C10.3402 14.6859 9.96402 15.0624 9.50021 15.0624ZM17.1334 1.02684C17.5972 1.02684 17.9734 1.40304 17.9734 1.86728C17.9734 2.33109 17.5974 2.70729 17.1334 2.70729C16.6687 2.70729 16.2927 2.33109 16.2927 1.86728C16.2927 1.40304 16.6687 1.02684 17.1334 1.02684Z" fill="white"/>
</svg>
